<?xml version="1.0" encoding="UTF-8" standalone="no" ?>
<!DOCTYPE svg PUBLIC "-//W3C//DTD SVG 1.1//EN" "http://www.w3.org/Graphics/SVG/1.1/DTD/svg11.dtd">
<svg xmlns="http://www.w3.org/2000/svg" xmlns:xlink="http://www.w3.org/1999/xlink" version="1.1" width="1280" height="512" viewBox="0 256 1280 512" xml:space="preserve">
<desc>Created with Fabric.js 5.3.0</desc>
<defs>
</defs>
<g transform="matrix(1 0 0 1 640 512)" id="background-logo"  >
<rect style="stroke: none; stroke-width: 0; stroke-dasharray: none; stroke-linecap: butt; stroke-dashoffset: 0; stroke-linejoin: miter; stroke-miterlimit: 4; fill: rgb(255,255,255); fill-rule: nonzero; opacity: 1;"  paint-order="stroke"  x="-640" y="-256" rx="0" ry="0" width="1280" height="512" />
</g>
<g transform="matrix(1.4395387927774677 0 0 1.4395387927774679 261.004375 512)" id="logo-logo"  >
<g style=""  paint-order="stroke"   >
		<g transform="matrix(1.0409584010645323 0 0 1.0409584010645325 0 0)"  >
<g style=""  paint-order="stroke"   >
		<g transform="matrix(1 0 0 1 0 0)"  >
<linearGradient id="SVGID_58573_58146" gradientUnits="userSpaceOnUse" gradientTransform="matrix(1 0 0 1 0 0)"  x1="0" y1="0" x2="0" y2="197">
<stop offset="0%" style="stop-color:rgb(248,77,158);stop-opacity: 1"/>
<stop offset="100%" style="stop-color:rgb(255,116,117);stop-opacity: 1"/>
</linearGradient>
<path style="stroke: none; stroke-width: 1; stroke-dasharray: none; stroke-linecap: butt; stroke-dashoffset: 0; stroke-linejoin: miter; stroke-miterlimit: 4; fill: url(#SVGID_58573_58146); fill-rule: nonzero; opacity: 1;"  paint-order="stroke"  transform=" translate(-100, -98)" d="M 15.78 125.3 L 16.5 149.51999999999998 L 35.769999999999996 159.89 L 50 184.51 L 81.55 184.51 L 102.91 196 L 121.53999999999999 184.51 L 150 184.51 L 165.78 157.20999999999998 L 186.42000000000002 144.48 L 185.77 122.61999999999999 L 200 98 L 184.22 70.7 L 183.5 46.480000000000004 L 164.23 36.12 L 150 11.49 L 118.45 11.49 L 97.09 0 L 78.47 11.49 L 50 11.49 L 34.22 38.78 L 13.58 51.52 L 14.23 73.37 L 0 98 Z M 198.29 98 L 185.68 119.81 L 184.32 73.81 Z M 20.37 147.13 L 19.94 132.49 L 32 153.39 Z M 50.85 183 L 38.25 161.19 L 78.81 183 Z M 102.78 191.42 L 89.87 184.48 L 114 184.48 Z M 149.15 183 L 123.93 183 L 163.12 158.82 Z M 182.41 142.29 L 169.93 150 L 182 129.11 Z M 179.63 48.83999999999999 L 180.07 63.47999999999999 L 168 42.61 Z M 149.15 13 L 161.76 34.81 L 121.19 13 Z M 97.22 4.55 L 110.13 11.49 L 86 11.49 Z M 50.85 13 L 76.07 13 L 36.88 37.15 Z M 83.58 13 L 112.88 13 L 165.51 41.3 L 180.16 66.65 L 181.93 126.34 L 167.28 151.69 L 116.43 183 L 87.12 183 L 34.49 154.7 L 19.84 129.38 L 18.07 69.69 L 32.72 44.34 Z M 30.06 46 L 18 66.88 L 17.61 53.67999999999999 Z M 14.32 76.18 L 15.68 122.18 L 1.71 98 Z" stroke-linecap="round" />
</g>
</g>
</g>
</g>
</g>
<g transform="matrix(1.9211538461538462 0 0 1.9211538461538462 823.4170254919495 511.41968965702085)" id="text-logo"  >
<g style=""  paint-order="stroke"   >
		<g transform="matrix(1 0 0 1 0 0)" id="text-logo-path-0"  >
<path style="stroke: none; stroke-width: 0.3953488372093016; stroke-dasharray: none; stroke-linecap: butt; stroke-dashoffset: 0; stroke-linejoin: miter; stroke-miterlimit: 4; fill: rgb(254,106,128); fill-rule: nonzero; opacity: 1;"  paint-order="stroke"  transform=" translate(-179.605, 11.22)" d="M 4.42 0 L 4.42 -17.24 L 12.55 0 L 15.23 0 L 23.39 -17.31 L 23.39 0 L 26.11 0 L 26.11 -22.78 L 23.32 -22.78 L 13.91 -2.79 L 4.45 -22.78 L 1.7 -22.78 L 1.7 0 Z M 39.54 0 L 55.86 0 L 55.86 -2.38 L 42.26 -2.38 L 42.26 -22.78 L 39.54 -22.78 Z M 69.29 0 L 85.61 0 L 85.61 -2.38 L 72.01 -2.38 L 72.01 -10.2 L 83.57 -10.2 L 83.57 -12.58 L 72.01 -12.58 L 72.01 -20.4 L 85.61 -20.4 L 85.61 -22.78 L 69.29 -22.78 Z M 102.44 0 L 109.41 -9.55 L 116.38 0 L 119.78 0 L 111.35 -11.56 L 119.61 -22.78 L 116.21 -22.78 L 109.41 -13.53 L 102.61 -22.78 L 99.21 -22.78 L 107.47 -11.56 L 99.04 0 Z M 135.93 0 L 135.93 -8.84 L 144.43 -8.84 C 148.34 -8.84 151.4 -11.9 151.4 -15.81 C 151.4 -19.72 148.34 -22.78 144.43 -22.78 L 133.21 -22.78 L 133.21 0 Z M 144.26 -11.22 L 135.93 -11.22 L 135.93 -20.4 L 144.26 -20.4 C 147.02 -20.4 148.85 -18.56 148.85 -15.81 C 148.85 -13.06 147.02 -11.22 144.26 -11.22 Z M 164.83 0 L 181.15 0 L 181.15 -2.38 L 167.55 -2.38 L 167.55 -10.2 L 179.11 -10.2 L 179.11 -12.58 L 167.55 -12.58 L 167.55 -20.4 L 181.15 -20.4 L 181.15 -22.78 L 164.83 -22.78 Z M 197.3 0 L 197.3 -9.49 L 203.86 -9.49 L 209.81 0 L 213.01 0 L 207.03 -9.59 C 210.32 -10.13 212.77 -12.82 212.77 -16.18 C 212.77 -19.89 209.68 -22.78 205.8 -22.78 L 194.58 -22.78 L 194.58 0 Z M 205.8 -11.83 L 197.3 -11.87 L 197.3 -20.4 L 205.63 -20.4 C 208.39 -20.4 210.22 -18.73 210.22 -16.18 C 210.22 -13.6 208.49 -11.9 205.8 -11.83 Z M 235.28 0 L 235.28 -20.4 L 243.44 -20.4 L 243.44 -22.78 L 224.4 -22.78 L 224.4 -20.4 L 232.56 -20.4 L 232.56 0 Z M 276.42 0 L 276.42 -10.2 L 290.02 -10.2 L 290.02 0 L 292.74 0 L 292.74 -22.78 L 290.02 -22.78 L 290.02 -12.58 L 276.42 -12.58 L 276.42 -22.78 L 273.7 -22.78 L 273.7 0 Z M 322.49 -22.78 L 322.49 -9.25 C 322.49 -5.1 319.4 -2.21 315.72 -2.21 C 311.78 -2.21 308.89 -5.2 308.89 -9.25 L 308.89 -22.78 L 306.17 -22.78 L 306.17 -9.25 C 306.17 -5.75 308.04 -2.69 310.96 -0.95 C 312.43 -0.1 313.99 0.34 315.72 0.34 C 319.12 0.34 322.25 -1.53 323.95 -4.45 C 324.8 -5.92 325.21 -7.51 325.21 -9.25 L 325.21 -22.78 Z M 350.2 0 C 354.38 0 357.51 -2.82 357.51 -6.53 C 357.51 -9.38 355.71 -11.12 352.85 -11.7 C 355.1 -12.51 356.49 -14.21 356.49 -16.69 C 356.49 -20.09 353.84 -22.64 349.86 -22.78 L 338.64 -22.78 L 338.64 0 Z M 350.03 -2.38 L 341.36 -2.38 L 341.36 -10.85 L 350.37 -10.85 C 353.12 -10.85 354.96 -9.15 354.96 -6.53 C 354.96 -3.98 353.12 -2.38 350.03 -2.38 Z M 350.13 -12.89 L 341.36 -12.89 L 341.36 -20.4 L 349.35 -20.4 C 352.21 -20.4 353.94 -19.14 353.94 -16.69 C 353.94 -14.38 352.51 -13.09 350.13 -12.89 Z" stroke-linecap="round" />
</g>
</g>
</g>
<g transform="matrix(1.9211538461538462 0 0 1.9211538461538462 261.38858013836386 508.9102555751667)" id="tagline-3a0f327a-aafa-4e44-aa87-18cbd55f8865-logo"  >
<g style=""  paint-order="stroke"   >
		<g transform="matrix(1 0 0 1 0 0)" id="tagline-3a0f327a-aafa-4e44-aa87-18cbd55f8865-logo-path-0"  >
<linearGradient id="SVGID_58147" gradientUnits="userSpaceOnUse" gradientTransform="matrix(1 0 0 1 2.080000000000002 -36.4)"  x1="-2.0800000000000125" y1="-9.31528000000003" x2="-2.0800000000000125" y2="49.68471999999997">
<stop offset="0%" style="stop-color:rgb(248,77,158);stop-opacity: 1"/>
<stop offset="100%" style="stop-color:rgb(255,116,117);stop-opacity: 1"/>
</linearGradient>
<path style="stroke: none; stroke-width: 0.288888888888889; stroke-dasharray: none; stroke-linecap: butt; stroke-dashoffset: 0; stroke-linejoin: miter; stroke-miterlimit: 4; fill: url(#SVGID_58147); fill-rule: nonzero; opacity: 1;"  paint-order="stroke"  transform=" translate(-22.880000000000003, 18.2)" d="M 6.19 -33.28 L 19.5 -5.2 L 22.1 -5.2 L 35.46 -34.32 C 35.72 -34.89 35.88 -34.84 35.88 -34.22 L 35.88 -3.12 C 35.88 -1.46 34.84 -1.04 33.28 -1.04 L 33.28 0 L 43.68 0 L 43.68 -1.04 C 42.12 -1.04 41.08 -1.46 41.08 -3.12 L 41.08 -33.28 C 41.08 -34.94 42.12 -35.36 43.68 -35.36 L 43.68 -36.4 L 35.36 -36.4 L 23.45 -10.5 C 23.19 -9.93 22.88 -9.93 22.57 -10.5 L 10.4 -36.4 L 2.08 -36.4 L 2.08 -35.36 C 3.64 -35.36 4.68 -34.94 4.68 -33.28 L 4.68 -3.12 C 4.68 -1.46 3.64 -1.04 2.08 -1.04 L 2.08 0 L 5.2 0 L 8.32 0 L 8.32 -1.04 C 6.76 -1.04 5.72 -1.46 5.72 -3.12 L 5.72 -33.18 C 5.72 -33.8 5.88 -33.85 6.19 -33.28 Z" stroke-linecap="round" />
</g>
</g>
</g>
</svg>